<svg width="31" height="31" viewBox="0 0 31 31" fill="none" xmlns="http://www.w3.org/2000/svg">
<path d="M5.29421 11.6441C7.59379 14.2036 9.86738 16.789 12.05 19.4393C12.2059 19.6342 12.4788 19.3614 12.3229 19.1665C10.1402 16.5161 7.86662 13.9307 5.56704 11.3713C5.41113 11.1764 5.1383 11.4493 5.29421 11.6441Z" fill="#177873"/>
<path d="M7.95756 9.63039C10.2312 12.2548 12.4918 14.8921 14.6484 17.6205C14.8043 17.8153 15.0772 17.5425 14.9213 17.3476C12.7646 14.6193 10.504 11.9819 8.23039 9.35756C8.07449 9.16268 7.80166 9.43551 7.95756 9.63039Z" fill="#177873"/>
<path d="M1.47461 5.22607C2.07224 5.30402 2.57893 5.68079 2.81278 6.23944C3.04664 6.78511 2.90373 7.34376 2.66987 7.86344C2.38405 8.52603 1.9813 9.20162 2.07224 9.95515C2.24114 11.2803 3.68325 12.0079 4.90449 11.852C6.29463 11.6701 8.03556 10.5008 8.49028 9.12366C8.88004 7.94139 8.08753 6.52527 6.86628 6.22645C6.41156 6.12252 5.94385 6.17448 5.48913 6.18748C4.80056 6.21346 4.25489 6.00559 3.68325 5.62882C2.92971 5.13513 2.18917 4.60245 1.24076 4.81033C0.993908 4.86229 1.09784 5.23906 1.34469 5.18709C2.50098 4.94025 3.28049 6.00559 4.25489 6.39535C5.17732 6.77211 6.21668 6.29141 7.10014 6.72015C7.98359 7.14888 8.43831 8.26619 8.03556 9.16264C7.61982 10.1111 6.54148 10.9036 5.60606 11.2673C4.65764 11.6311 3.52734 11.5532 2.83877 10.7347C2.03326 9.78625 2.72184 8.78587 3.09861 7.83746C3.63128 6.48629 2.99467 5.03119 1.47461 4.83631C1.22776 4.81032 1.22776 5.20008 1.47461 5.22607Z" fill="#177873"/>
<path d="M2.48798 9.51338C3.34545 9.91613 4.78757 10.202 5.13835 8.9937C5.16433 8.88976 5.17733 8.78583 5.19032 8.68189C5.24229 8.33111 5.19032 8.25316 5.51512 8.00631C5.83992 7.75946 6.06078 7.83742 6.39857 7.68151C6.8403 7.47364 7.07415 7.0449 7.10014 6.57719C7.11313 6.33034 6.72337 6.33034 6.71038 6.57719C6.63243 7.72049 5.30725 7.07089 4.91749 7.92836C4.76158 8.29213 4.87851 8.73386 4.67064 9.07165C4.22891 9.78621 3.24152 9.44842 2.66988 9.17559C2.462 9.07165 2.26712 9.40944 2.48798 9.51338Z" fill="#177873"/>
<path d="M5.85305 25.5455C6.65856 23.6097 6.24281 21.1932 5.09952 19.4652C4.68377 18.8286 3.9952 18.27 3.17671 18.4129C2.41018 18.5558 2.02042 19.3353 2.11136 20.0629C2.33222 21.9077 4.55386 22.3495 5.90502 21.427C6.64556 20.9203 7.11328 20.1018 7.33414 19.2574C7.67193 17.9452 7.43807 16.529 8.72428 15.6846C8.93215 15.5417 8.73727 15.2039 8.5294 15.3468C7.19122 16.2302 7.29516 17.5554 6.99635 18.9715C6.65855 20.5436 4.93062 22.3754 3.24167 21.2062C2.90387 20.9723 2.65703 20.6475 2.5401 20.2448C2.3712 19.6211 2.64403 18.8026 3.39757 18.7767C4.33299 18.7507 4.85267 19.7381 5.19046 20.4656C5.90502 22.0247 6.13887 23.8175 5.47628 25.4286C5.38534 25.6754 5.76211 25.7663 5.85305 25.5455Z" fill="#177873"/>
<path d="M10.361 26.0652C9.33467 23.6097 10.348 20.7255 12.5957 19.3614C13.5571 18.7767 14.6874 18.348 15.3889 17.4256C16.0775 16.5291 16.0905 15.3728 15.6878 14.3465C14.6744 11.7481 11.3874 10.8646 10.5689 8.17526C9.55554 4.8753 13.2712 2.51076 15.9866 1.9521C18.8318 1.36746 21.6251 2.14698 24.0286 3.69303C26.1073 5.0312 27.8742 6.83709 28.6667 9.21462C29.4852 11.6961 29.6541 14.5673 29.4463 17.1527C29.3423 18.4909 29.1085 19.8291 28.6148 21.0893C28.0951 22.4405 27.2116 23.6227 26.2242 24.6621C23.9896 27.0396 21.1963 29.2612 17.8314 29.5731C14.9472 29.8329 11.6862 28.7416 10.3351 26.0133C10.2181 25.7924 9.89333 25.9873 9.99726 26.2081C11.1536 28.5467 13.596 29.677 16.1035 29.9498C19.1566 30.2746 21.9109 28.9494 24.2105 27.0526C26.4451 25.2207 28.5238 23.0381 29.3163 20.1799C30.0959 17.3866 30.0049 14.3594 29.5632 11.5272C29.1604 8.95478 28.212 6.72016 26.2762 4.92727C24.2755 3.08241 21.729 1.69226 19.0007 1.40644C16.2724 1.13361 13.2193 1.92612 11.3354 4.00484C10.426 5.01821 9.85435 6.38237 10.0622 7.74653C10.2831 9.16265 11.3095 10.241 12.3358 11.1504C13.674 12.3197 15.4019 13.515 15.5448 15.4638C15.7007 17.4515 13.7779 18.1531 12.3878 19.0106C9.99726 20.4657 8.87995 23.5448 9.97128 26.1562C10.0882 26.403 10.465 26.2991 10.361 26.0652Z" fill="#177873"/>
<path d="M10.9717 12.7484C11.8942 12.0209 12.6867 11.1634 13.5961 10.4229C14.4666 9.72129 15.389 9.07169 15.9736 8.09729C16.7532 6.7851 16.6622 4.44654 14.8044 4.10875C14.1158 3.97883 13.3493 4.30363 12.9855 4.91425C12.5827 5.61582 12.8945 6.44731 13.4532 6.95399C14.1418 7.5906 15.1162 7.69454 15.9996 7.78548C17.3248 7.92839 18.65 8.05831 19.9752 8.18823C21.4563 8.34414 23.9897 8.65594 24.2365 6.56424C24.4314 4.97921 22.6255 3.8749 21.3134 4.81032C19.5205 6.08353 20.9106 8.68193 21.7681 10.0721C22.6515 11.5012 24.2885 13.9437 26.2763 13.6059C27.8873 13.3331 28.433 11.1894 27.1078 10.215C25.4318 8.96775 23.9247 10.7866 23.535 12.3197C22.9503 14.6063 22.9114 17.2047 23.47 19.5042C23.6779 20.3617 24.1066 21.2192 24.9641 21.583C25.6137 21.8428 26.3412 21.7259 26.783 21.1542C27.9393 19.6342 26.1464 18.0362 24.6133 18.2051C23.6389 18.309 22.8074 18.8936 22.1189 19.5692C21.2354 20.4397 20.4559 21.453 19.6504 22.4015C18.702 23.5318 17.5327 25.4936 19.0138 26.7408C20.326 27.8451 21.95 26.2601 21.7421 24.844C21.4043 22.5834 18.65 21.9467 16.8051 21.531C15.6878 21.2842 14.4796 21.0373 13.3233 21.0373C12.5957 21.0503 11.7513 21.2192 11.3355 21.8818C10.504 23.168 11.8942 24.714 13.2583 24.3633C14.9863 23.9215 15.2331 21.7519 14.0898 20.5826C13.4272 19.907 12.4658 19.6472 11.5434 19.6991C11.2965 19.7121 11.2965 20.1019 11.5434 20.0889C13.0894 19.9979 15.0902 21.2842 14.2717 23.0641C13.9599 23.7656 13.1154 24.2203 12.3619 23.9475C11.6863 23.7136 11.2835 22.8432 11.6083 22.1806C12.2839 20.8424 14.8693 21.531 15.9607 21.7389C17.4158 22.0117 19.2476 22.3235 20.4169 23.3109C20.9886 23.7916 21.4173 24.5062 21.3783 25.2727C21.3263 26.1432 20.3649 27.0396 19.4815 26.5849C17.9095 25.7664 19.0268 23.7526 19.7803 22.8302C20.6897 21.7129 21.6122 20.4657 22.7035 19.5172C23.3141 18.9846 24.0676 18.5558 24.8991 18.5558C25.7436 18.5558 26.705 19.1145 26.718 20.0499C26.744 21.0243 25.8216 21.583 24.9511 21.1282C24.1976 20.7255 23.9247 19.855 23.7558 19.0755C23.431 17.5035 23.3791 15.8535 23.561 14.2685C23.7039 12.9173 24.0157 10.3059 25.8216 10.189C26.5361 10.15 27.2637 10.6437 27.4326 11.3583C27.6404 12.2417 26.9519 13.1512 26.0554 13.2161C24.5354 13.346 23.2751 11.5791 22.5086 10.5008C21.7031 9.34452 20.5988 7.73351 20.8456 6.25243C20.9886 5.44692 21.5732 4.79733 22.4307 4.8363C23.3271 4.87528 23.9247 5.62881 23.8078 6.49928C23.587 8.21422 21.4043 7.90241 20.183 7.78548C18.4681 7.60359 16.6492 7.57761 14.9733 7.21383C14.1158 7.03195 12.8296 6.31739 13.2064 5.22606C13.5312 4.27765 14.7784 4.22568 15.428 4.82331C16.9351 6.21345 15.5059 8.26619 14.3237 9.26657C13.713 9.78625 13.0634 10.254 12.4658 10.7996C11.8682 11.3453 11.2965 11.9039 10.6599 12.4106C10.491 12.6185 10.7769 12.8913 10.9717 12.7484Z" fill="#177873"/>
<path d="M5.29421 11.6441C7.59379 14.2036 9.86738 16.789 12.05 19.4393C12.2059 19.6342 12.4788 19.3614 12.3229 19.1665C10.1402 16.5161 7.86662 13.9307 5.56704 11.3713C5.41113 11.1764 5.1383 11.4493 5.29421 11.6441Z" stroke="#177873"/>
<path d="M7.95756 9.63039C10.2312 12.2548 12.4918 14.8921 14.6484 17.6205C14.8043 17.8153 15.0772 17.5425 14.9213 17.3476C12.7646 14.6193 10.504 11.9819 8.23039 9.35756C8.07449 9.16268 7.80166 9.43551 7.95756 9.63039Z" stroke="#177873"/>
<path d="M1.47461 5.22607C2.07224 5.30402 2.57893 5.68079 2.81278 6.23944C3.04664 6.78511 2.90373 7.34376 2.66987 7.86344C2.38405 8.52603 1.9813 9.20162 2.07224 9.95515C2.24114 11.2803 3.68325 12.0079 4.90449 11.852C6.29463 11.6701 8.03556 10.5008 8.49028 9.12366C8.88004 7.94139 8.08753 6.52527 6.86628 6.22645C6.41156 6.12252 5.94385 6.17448 5.48913 6.18748C4.80056 6.21346 4.25489 6.00559 3.68325 5.62882C2.92971 5.13513 2.18917 4.60245 1.24076 4.81033C0.993908 4.86229 1.09784 5.23906 1.34469 5.18709C2.50098 4.94025 3.28049 6.00559 4.25489 6.39535C5.17732 6.77211 6.21668 6.29141 7.10014 6.72015C7.98359 7.14888 8.43831 8.26619 8.03556 9.16264C7.61982 10.1111 6.54148 10.9036 5.60606 11.2673C4.65764 11.6311 3.52734 11.5532 2.83877 10.7347C2.03326 9.78625 2.72184 8.78587 3.09861 7.83746C3.63128 6.48629 2.99467 5.03119 1.47461 4.83631C1.22776 4.81032 1.22776 5.20008 1.47461 5.22607Z" stroke="#177873"/>
<path d="M2.48798 9.51338C3.34545 9.91613 4.78757 10.202 5.13835 8.9937C5.16433 8.88976 5.17733 8.78583 5.19032 8.68189C5.24229 8.33111 5.19032 8.25316 5.51512 8.00631C5.83992 7.75946 6.06078 7.83742 6.39857 7.68151C6.8403 7.47364 7.07415 7.0449 7.10014 6.57719C7.11313 6.33034 6.72337 6.33034 6.71038 6.57719C6.63243 7.72049 5.30725 7.07089 4.91749 7.92836C4.76158 8.29213 4.87851 8.73386 4.67064 9.07165C4.22891 9.78621 3.24152 9.44842 2.66988 9.17559C2.462 9.07165 2.26712 9.40944 2.48798 9.51338Z" stroke="#177873"/>
<path d="M5.85305 25.5455C6.65856 23.6097 6.24281 21.1932 5.09952 19.4652C4.68377 18.8286 3.9952 18.27 3.17671 18.4129C2.41018 18.5558 2.02042 19.3353 2.11136 20.0629C2.33222 21.9077 4.55386 22.3495 5.90502 21.427C6.64556 20.9203 7.11328 20.1018 7.33414 19.2574C7.67193 17.9452 7.43807 16.529 8.72428 15.6846C8.93215 15.5417 8.73727 15.2039 8.5294 15.3468C7.19122 16.2302 7.29516 17.5554 6.99635 18.9715C6.65855 20.5436 4.93062 22.3754 3.24167 21.2062C2.90387 20.9723 2.65703 20.6475 2.5401 20.2448C2.3712 19.6211 2.64403 18.8026 3.39757 18.7767C4.33299 18.7507 4.85267 19.7381 5.19046 20.4656C5.90502 22.0247 6.13887 23.8175 5.47628 25.4286C5.38534 25.6754 5.76211 25.7663 5.85305 25.5455Z" stroke="#177873"/>
<path d="M10.361 26.0652C9.33467 23.6097 10.348 20.7255 12.5957 19.3614C13.5571 18.7767 14.6874 18.348 15.3889 17.4256C16.0775 16.5291 16.0905 15.3728 15.6878 14.3465C14.6744 11.7481 11.3874 10.8646 10.5689 8.17526C9.55554 4.8753 13.2712 2.51076 15.9866 1.9521C18.8318 1.36746 21.6251 2.14698 24.0286 3.69303C26.1073 5.0312 27.8742 6.83709 28.6667 9.21462C29.4852 11.6961 29.6541 14.5673 29.4463 17.1527C29.3423 18.4909 29.1085 19.8291 28.6148 21.0893C28.0951 22.4405 27.2116 23.6227 26.2242 24.6621C23.9896 27.0396 21.1963 29.2612 17.8314 29.5731C14.9472 29.8329 11.6862 28.7416 10.3351 26.0133C10.2181 25.7924 9.89333 25.9873 9.99726 26.2081C11.1536 28.5467 13.596 29.677 16.1035 29.9498C19.1566 30.2746 21.9109 28.9494 24.2105 27.0526C26.4451 25.2207 28.5238 23.0381 29.3163 20.1799C30.0959 17.3866 30.0049 14.3594 29.5632 11.5272C29.1604 8.95478 28.212 6.72016 26.2762 4.92727C24.2755 3.08241 21.729 1.69226 19.0007 1.40644C16.2724 1.13361 13.2193 1.92612 11.3354 4.00484C10.426 5.01821 9.85435 6.38237 10.0622 7.74653C10.2831 9.16265 11.3095 10.241 12.3358 11.1504C13.674 12.3197 15.4019 13.515 15.5448 15.4638C15.7007 17.4515 13.7779 18.1531 12.3878 19.0106C9.99726 20.4657 8.87995 23.5448 9.97128 26.1562C10.0882 26.403 10.465 26.2991 10.361 26.0652Z" stroke="#177873"/>
<path d="M10.9717 12.7484C11.8942 12.0209 12.6867 11.1634 13.5961 10.4229C14.4666 9.72129 15.389 9.07169 15.9736 8.09729C16.7532 6.7851 16.6622 4.44654 14.8044 4.10875C14.1158 3.97883 13.3493 4.30363 12.9855 4.91425C12.5827 5.61582 12.8945 6.44731 13.4532 6.95399C14.1418 7.5906 15.1162 7.69454 15.9996 7.78548C17.3248 7.92839 18.65 8.05831 19.9752 8.18823C21.4563 8.34414 23.9897 8.65594 24.2365 6.56424C24.4314 4.97921 22.6255 3.8749 21.3134 4.81032C19.5205 6.08353 20.9106 8.68193 21.7681 10.0721C22.6515 11.5012 24.2885 13.9437 26.2763 13.6059C27.8873 13.3331 28.433 11.1894 27.1078 10.215C25.4318 8.96775 23.9247 10.7866 23.535 12.3197C22.9503 14.6063 22.9114 17.2047 23.47 19.5042C23.6779 20.3617 24.1066 21.2192 24.9641 21.583C25.6137 21.8428 26.3412 21.7259 26.783 21.1542C27.9393 19.6342 26.1464 18.0362 24.6133 18.2051C23.6389 18.309 22.8074 18.8936 22.1189 19.5692C21.2354 20.4397 20.4559 21.453 19.6504 22.4015C18.702 23.5318 17.5327 25.4936 19.0138 26.7408C20.326 27.8451 21.95 26.2601 21.7421 24.844C21.4043 22.5834 18.65 21.9467 16.8051 21.531C15.6878 21.2842 14.4796 21.0373 13.3233 21.0373C12.5957 21.0503 11.7513 21.2192 11.3355 21.8818C10.504 23.168 11.8942 24.714 13.2583 24.3633C14.9863 23.9215 15.2331 21.7519 14.0898 20.5826C13.4272 19.907 12.4658 19.6472 11.5434 19.6991C11.2965 19.7121 11.2965 20.1019 11.5434 20.0889C13.0894 19.9979 15.0902 21.2842 14.2717 23.0641C13.9599 23.7656 13.1154 24.2203 12.3619 23.9475C11.6863 23.7136 11.2835 22.8432 11.6083 22.1806C12.2839 20.8424 14.8693 21.531 15.9607 21.7389C17.4158 22.0117 19.2476 22.3235 20.4169 23.3109C20.9886 23.7916 21.4173 24.5062 21.3783 25.2727C21.3263 26.1432 20.3649 27.0396 19.4815 26.5849C17.9095 25.7664 19.0268 23.7526 19.7803 22.8302C20.6897 21.7129 21.6122 20.4657 22.7035 19.5172C23.3141 18.9846 24.0676 18.5558 24.8991 18.5558C25.7436 18.5558 26.705 19.1145 26.718 20.0499C26.744 21.0243 25.8216 21.583 24.9511 21.1282C24.1976 20.7255 23.9247 19.855 23.7558 19.0755C23.431 17.5035 23.3791 15.8535 23.561 14.2685C23.7039 12.9173 24.0157 10.3059 25.8216 10.189C26.5361 10.15 27.2637 10.6437 27.4326 11.3583C27.6404 12.2417 26.9519 13.1512 26.0554 13.2161C24.5354 13.346 23.2751 11.5791 22.5086 10.5008C21.7031 9.34452 20.5988 7.73351 20.8456 6.25243C20.9886 5.44692 21.5732 4.79733 22.4307 4.8363C23.3271 4.87528 23.9247 5.62881 23.8078 6.49928C23.587 8.21422 21.4043 7.90241 20.183 7.78548C18.4681 7.60359 16.6492 7.57761 14.9733 7.21383C14.1158 7.03195 12.8296 6.31739 13.2064 5.22606C13.5312 4.27765 14.7784 4.22568 15.428 4.82331C16.9351 6.21345 15.5059 8.26619 14.3237 9.26657C13.713 9.78625 13.0634 10.254 12.4658 10.7996C11.8682 11.3453 11.2965 11.9039 10.6599 12.4106C10.491 12.6185 10.7769 12.8913 10.9717 12.7484Z" stroke="#177873"/>
</svg>
