<svg width="31" height="29" viewBox="0 0 31 29" fill="none" xmlns="http://www.w3.org/2000/svg">
<path d="M27.9808 10.8667C29.8274 12.907 29.7629 15.6189 28.7814 18.0337C28.0712 19.7899 27.1156 21.1588 25.3981 22.0886C23.9776 22.8634 22.118 23.2895 20.5684 22.6826C19.4449 22.2435 18.6185 21.133 18.8251 19.8933C18.9155 19.3638 19.2383 18.9118 19.7161 18.6535C20.6459 18.1499 21.6661 18.4082 22.3634 19.1701C23.3577 20.2419 23.319 21.8174 22.8412 23.1216C21.7694 26.0788 18.6314 28.0288 15.5321 27.8867C13.8792 27.8093 12.2392 27.1636 10.9736 26.0918C9.85016 25.1362 8.61045 23.3928 9.50149 21.8949C9.81141 21.3783 10.3925 20.9263 11.0253 20.9134C12.0842 20.8747 12.7557 22.0498 12.4716 22.9925C12.0455 24.4259 10.5733 25.007 9.21739 25.1232C5.8986 25.4073 2.47652 23.4832 1.63713 20.1386C1.24973 18.5632 1.55965 16.8973 2.51525 15.5801C2.95432 14.9861 3.52251 14.4825 4.1811 14.1338C5.05922 13.6689 6.47971 13.4236 7.08665 14.4566C7.61611 15.3606 6.8413 16.2775 5.97609 16.5357C5.09797 16.794 4.14236 16.4582 3.45794 15.89C2.03745 14.7149 1.86957 12.7262 2.30863 11.0345C3.07053 8.11608 5.69199 5.58502 8.76541 5.32675C10.018 5.22344 11.9163 5.63668 11.7614 7.26379C11.671 8.21939 10.5862 8.73593 9.70811 8.54223C8.88164 8.36144 8.2747 7.61245 8.081 6.81181C7.61611 4.9006 9.3207 3.33806 10.8832 2.62782C12.4716 1.90466 14.3312 1.4656 16.0616 1.45268C17.8307 1.42686 19.587 1.9434 20.8267 3.26058C21.8469 4.35823 22.4667 6.06283 21.7823 7.49623C21.4336 8.21939 20.7492 8.77467 19.9098 8.58097C19.3029 8.43892 19.0188 7.72867 19.3287 7.19922C19.5612 6.7989 20.0519 6.59228 20.4651 6.48897C21.8985 6.10157 23.5385 6.76016 24.365 7.96112C25.2044 9.175 25.0623 10.8279 24.2359 12.016C23.8614 12.5583 23.3061 13.062 22.6475 13.2428C22.3505 13.3202 21.9889 13.3461 21.6919 13.2428C21.1883 13.062 20.9558 12.4292 21.4595 12.0289C22.4021 11.2928 23.2932 12.61 23.2415 13.4365C23.1899 14.3533 22.5313 15.1281 21.7177 15.4897C20.9687 15.8384 20.1294 15.8771 19.3158 15.8126C18.8767 15.7738 18.244 15.748 17.9211 15.3864C17.4046 14.8182 18.2827 14.0951 18.7089 14.857C19.1479 15.6318 18.244 16.3808 17.7145 16.8069C17.0043 17.3751 16.1907 18.0079 15.2351 18.0337C14.3957 18.0466 13.2335 17.2331 13.8017 16.2775C14.1762 15.6447 15.3772 15.903 15.1576 16.7294C14.951 17.5172 13.7501 17.7109 13.0785 17.6979C12.3425 17.685 11.5935 17.4268 11.064 16.9102C10.5346 16.4066 10.2892 15.6834 10.3538 14.9603C10.4313 14.0951 11.0899 13.1007 12.0713 13.1524C12.4458 13.1782 12.7944 13.4106 12.8978 13.7722C13.0915 14.4566 12.2263 14.8053 11.6968 14.4566C11.0253 14.0176 11.0511 13.0878 11.2448 12.4034C11.6839 10.815 13.2464 9.40744 14.9639 9.96272C15.7258 10.2081 16.449 10.8667 16.4748 11.719C16.4877 12.6487 15.6742 13.1524 14.8219 13.1136C14.5765 13.1007 14.5765 13.4881 14.8219 13.501C16.7847 13.5914 17.495 11.3574 16.0358 10.1177C14.4732 8.8005 12.3037 9.61405 11.3352 11.2282C10.8832 11.9643 10.5733 12.9458 10.8058 13.811C10.9866 14.4825 11.671 15.1927 12.42 15.0119C13.0786 14.857 13.4918 14.1855 13.2206 13.5398C12.9236 12.8554 12.1488 12.6358 11.4773 12.8683C9.74685 13.4365 9.54023 15.8513 10.6637 17.0781C11.2706 17.7367 12.1875 18.0854 13.0785 18.0983C13.8534 18.1112 14.951 17.9046 15.3901 17.1943C16.1262 15.9804 14.4216 14.9344 13.5822 15.9546C13.0786 16.5616 13.3239 17.5172 13.8792 18.0079C14.6023 18.6277 15.6742 18.5244 16.4748 18.137C17.34 17.7367 18.5152 16.936 18.98 16.0708C19.29 15.4897 19.2771 14.7149 18.6959 14.3146C18.1536 13.9401 17.3658 14.2759 17.3529 14.9732C17.34 15.7997 18.2311 16.0967 18.9026 16.1871C20.8138 16.4453 23.5256 15.8513 23.6418 13.4752C23.6806 12.6875 23.2544 11.861 22.4925 11.5898C21.7565 11.3316 20.8009 11.7448 20.8138 12.5971C20.8138 13.2686 21.3432 13.6689 21.976 13.7335C22.7637 13.811 23.4998 13.4236 24.068 12.8812C25.411 11.6027 25.7855 9.38161 24.7137 7.81907C23.7064 6.34692 21.6015 5.59794 19.9356 6.3211C19.1737 6.64394 18.6314 7.32836 18.9026 8.18065C19.1608 8.9942 20.0906 9.21373 20.8396 8.96838C22.6862 8.36144 22.7121 5.83038 22.0276 4.38406C21.0591 2.34372 18.9413 1.27189 16.7718 1.12984C15.4417 1.05236 14.1116 1.27189 12.8332 1.60765C11.6322 1.93049 10.4054 2.34372 9.41109 3.10562C7.84855 4.28075 6.93169 6.61811 8.41675 8.2323C9.6048 9.52366 12.2521 9.09751 12.1746 7.05717C12.11 5.19762 9.87599 4.82312 8.41675 5.01683C6.3635 5.30093 4.54269 6.52771 3.3159 8.16774C1.99871 9.93689 1.21098 12.4938 2.07619 14.6245C2.77352 16.3162 4.943 17.7496 6.69924 16.6519C7.39658 16.2129 7.87438 15.4122 7.57737 14.5858C7.25453 13.656 6.23436 13.2686 5.30458 13.3848C3.26424 13.6431 1.7017 15.5801 1.24973 17.4655C0.746099 19.6092 1.54674 21.8819 3.09637 23.4057C4.72347 25.007 7.15122 25.7431 9.39818 25.4977C11.0253 25.3169 13.1173 24.2839 12.9623 22.321C12.8074 20.526 10.7412 20.0353 9.57897 21.2104C8.04226 22.7601 9.24322 25.0199 10.5862 26.2338C13.9696 29.2814 19.3287 28.7907 22.131 25.2136C23.2673 23.7544 24.0809 21.6366 23.2803 19.8287C22.5571 18.1887 20.3747 17.2589 19.0059 18.7439C18.0632 19.7641 18.3989 21.4558 19.3416 22.3468C20.8783 23.8061 23.4094 23.4574 25.1656 22.6438C27.8775 21.3912 29.4529 18.589 29.8404 15.6834C30.0857 13.798 29.5692 11.9902 28.2907 10.5697C28.097 10.4018 27.8129 10.673 27.9808 10.8667Z" fill="#177873" stroke="#177873"/>
</svg>
