<svg width="23" height="24" viewBox="0 0 23 24" fill="none" xmlns="http://www.w3.org/2000/svg">
<path d="M11.4521 1H11.5479C13.2988 1 14.6778 1 15.7837 1.105C16.9127 1.211 17.8499 1.433 18.6875 1.938C19.7072 2.55235 20.554 3.43595 21.1427 4.5C21.6267 5.374 21.8395 6.352 21.941 7.53C22.0417 8.684 22.0417 10.123 22.0417 11.95V12.05C22.0417 13.877 22.0417 15.316 21.941 16.47C21.8395 17.648 21.6267 18.626 21.1427 19.5C20.554 20.564 19.7072 21.4476 18.6875 22.062C17.8499 22.567 16.9127 22.789 15.7837 22.895C14.6778 23 13.2988 23 11.5479 23H11.4521C9.7012 23 8.32216 23 7.21625 22.895C6.08733 22.789 5.15008 22.567 4.31249 22.062C3.29278 21.4476 2.446 20.564 1.85724 19.5C1.37329 18.626 1.16054 17.648 1.05895 16.47C0.958328 15.316 0.958328 13.877 0.958328 12.05V11.95C0.958328 10.123 0.958328 8.684 1.05895 7.53C1.16054 6.352 1.37329 5.374 1.85724 4.5C2.446 3.43595 3.29278 2.55235 4.31249 1.938C5.15008 1.433 6.08733 1.211 7.21625 1.105C8.32216 1 9.7012 1 11.4521 1ZM7.38875 3.096C6.39304 3.191 5.7682 3.37 5.27083 3.67C4.54246 4.10882 3.93762 4.73997 3.51708 5.5C3.22958 6.019 3.05708 6.671 2.967 7.71C2.87595 8.764 2.87499 10.112 2.87499 12C2.87499 13.888 2.87595 15.236 2.967 16.29C3.05804 17.329 3.22958 17.981 3.51708 18.5C3.93762 19.26 4.54246 19.8912 5.27083 20.33C5.7682 20.63 6.39304 20.81 7.38875 20.904C8.39883 20.999 9.69066 21 11.5 21C13.3093 21 14.6012 20.999 15.6112 20.904C16.607 20.809 17.2318 20.63 17.7292 20.33C18.4575 19.8912 19.0624 19.26 19.4829 18.5C19.7704 17.981 19.9429 17.329 20.033 16.29C20.124 15.237 20.125 13.888 20.125 12C20.125 10.112 20.124 8.764 20.033 7.71C19.942 6.671 19.7704 6.019 19.4829 5.5C19.0624 4.73997 18.4575 4.10882 17.7292 3.67C17.2318 3.37 16.607 3.19 15.6112 3.096C14.6021 3.001 13.3093 3 11.5 3C9.69066 3 8.39883 3.001 7.38875 3.096ZM16.0521 6.252C16.0521 5.7 16.4833 5.25 17.0123 5.25C17.5413 5.25 17.9726 5.7 17.9726 6.252C17.9726 6.804 17.5413 7.254 17.0123 7.254C16.4833 7.254 16.0521 6.804 16.0521 6.252ZM11.5 8.5C11.0595 8.5 10.6234 8.59053 10.2164 8.76642C9.80947 8.94231 9.4397 9.20012 9.12824 9.52513C8.81678 9.85013 8.56971 10.236 8.40115 10.6606C8.23259 11.0852 8.14583 11.5404 8.14583 12C8.14583 12.4596 8.23259 12.9148 8.40115 13.3394C8.56971 13.764 8.81678 14.1499 9.12824 14.4749C9.4397 14.7999 9.80947 15.0577 10.2164 15.2336C10.6234 15.4095 11.0595 15.5 11.5 15.5C12.3896 15.5 13.2427 15.1313 13.8717 14.4749C14.5008 13.8185 14.8542 12.9283 14.8542 12C14.8542 11.0717 14.5008 10.1815 13.8717 9.52513C13.2427 8.86875 12.3896 8.5 11.5 8.5ZM6.22916 12C6.22916 10.5413 6.78448 9.14236 7.77295 8.11091C8.76143 7.07946 10.1021 6.5 11.5 6.5C12.8979 6.5 14.2386 7.07946 15.227 8.11091C16.2155 9.14236 16.7708 10.5413 16.7708 12C16.7708 13.4587 16.2155 14.8576 15.227 15.8891C14.2386 16.9205 12.8979 17.5 11.5 17.5C10.1021 17.5 8.76143 16.9205 7.77295 15.8891C6.78448 14.8576 6.22916 13.4587 6.22916 12Z" fill="#177873"/>
</svg>
