<svg width="26" height="26" viewBox="0 0 26 26" fill="none" xmlns="http://www.w3.org/2000/svg">
<path d="M9.927 2.70834H16.073C17.897 2.70834 19.366 2.70834 20.523 2.86334C21.723 3.02534 22.733 3.37034 23.535 4.17334C24.338 4.97534 24.683 5.98634 24.845 7.18634C25 8.34234 25 9.81134 25 11.6353V12.7813C25 14.6053 25 16.0743 24.845 17.2313C24.683 18.4313 24.338 19.4413 23.535 20.2433C22.733 21.0463 21.723 21.3913 20.522 21.5533C19.366 21.7083 17.897 21.7083 16.073 21.7083H9.927C8.103 21.7083 6.634 21.7083 5.477 21.5533C4.277 21.3913 3.267 21.0463 2.464 20.2433C1.662 19.4413 1.317 18.4313 1.155 17.2303C1 16.0743 1 14.6053 1 12.7813V11.6353C1 9.81134 1 8.34234 1.155 7.18534C1.317 5.98534 1.662 4.97534 2.465 4.17234C3.267 3.37034 4.278 3.02534 5.478 2.86334C6.634 2.70834 8.103 2.70834 9.927 2.70834ZM5.744 4.84634C4.766 4.97734 4.248 5.21834 3.879 5.58634C3.509 5.95634 3.269 6.47434 3.138 7.45234C3.002 8.45934 3 9.79434 3 11.7083V12.7083C3 14.6223 3.002 15.9573 3.138 16.9643C3.269 17.9423 3.51 18.4603 3.878 18.8293C4.248 19.1993 4.766 19.4393 5.744 19.5713C6.751 19.7063 8.086 19.7083 10 19.7083H16C17.914 19.7083 19.249 19.7063 20.256 19.5713C21.234 19.4393 21.752 19.1983 22.121 18.8293C22.491 18.4603 22.731 17.9423 22.863 16.9643C22.998 15.9573 23 14.6223 23 12.7083V11.7083C23 9.79434 22.998 8.45934 22.863 7.45234C22.731 6.47434 22.49 5.95634 22.121 5.58734C21.752 5.21734 21.234 4.97734 20.256 4.84634C19.249 4.71034 17.914 4.70834 16 4.70834H10C8.086 4.70834 6.751 4.71034 5.744 4.84634ZM9.801 7.17234L18.496 12.2093L9.801 17.2453V7.17234ZM11.801 10.6423V13.7763L14.506 12.2083L11.801 10.6423Z" fill="#177873"/>
</svg>
