<svg width="19" height="18" viewBox="0 0 19 18" fill="none" xmlns="http://www.w3.org/2000/svg">
<path d="M4.43748 14.0624C4.43748 14.2116 4.37821 14.3546 4.27273 14.4601C4.16724 14.5656 4.02416 14.6249 3.87498 14.6249C3.72579 14.6249 3.58272 14.5656 3.47723 14.4601C3.37174 14.3546 3.31248 14.2116 3.31248 14.0624V4.17025L2.02323 5.46063C1.97093 5.51293 1.90884 5.55441 1.84051 5.58272C1.77218 5.61102 1.69894 5.62559 1.62498 5.62559C1.55102 5.62559 1.47778 5.61102 1.40945 5.58272C1.34111 5.55441 1.27903 5.51293 1.22673 5.46063C1.17443 5.40833 1.13294 5.34624 1.10464 5.27791C1.07634 5.20958 1.06177 5.13634 1.06177 5.06238C1.06177 4.98842 1.07634 4.91518 1.10464 4.84685C1.13294 4.77852 1.17443 4.71643 1.22673 4.66413L3.47673 2.41525L3.4846 2.40738C3.59035 2.30467 3.73233 2.24778 3.87974 2.24904C4.02715 2.25031 4.16813 2.30962 4.2721 2.41413L6.5221 4.66413C6.5744 4.71635 6.6159 4.77837 6.64423 4.84663C6.67257 4.9149 6.68718 4.98807 6.68723 5.06198C6.68728 5.13589 6.67278 5.20909 6.64454 5.27739C6.6163 5.34569 6.57489 5.40777 6.52267 5.46007C6.47044 5.51237 6.40843 5.55387 6.34016 5.5822C6.2719 5.61053 6.19872 5.62514 6.12481 5.62519C6.0509 5.62524 5.97771 5.61074 5.9094 5.5825C5.8411 5.55427 5.77903 5.51285 5.72673 5.46063L4.43748 4.17025V14.0624ZM8.37498 3.93738C8.37498 3.78819 8.43424 3.64512 8.53973 3.53963C8.64522 3.43414 8.78829 3.37488 8.93748 3.37488H16.8125C16.9617 3.37488 17.1047 3.43414 17.2102 3.53963C17.3157 3.64512 17.375 3.78819 17.375 3.93738C17.375 4.08656 17.3157 4.22964 17.2102 4.33513C17.1047 4.44062 16.9617 4.49988 16.8125 4.49988H8.93748C8.78829 4.49988 8.64522 4.44062 8.53973 4.33513C8.43424 4.22964 8.37498 4.08656 8.37498 3.93738ZM8.93748 6.74988C8.78829 6.74988 8.64522 6.80914 8.53973 6.91463C8.43424 7.02012 8.37498 7.16319 8.37498 7.31238C8.37498 7.46156 8.43424 7.60464 8.53973 7.71013C8.64522 7.81562 8.78829 7.87488 8.93748 7.87488H14.5625C14.7117 7.87488 14.8547 7.81562 14.9602 7.71013C15.0657 7.60464 15.125 7.46156 15.125 7.31238C15.125 7.16319 15.0657 7.02012 14.9602 6.91463C14.8547 6.80914 14.7117 6.74988 14.5625 6.74988H8.93748ZM8.93748 10.1249C8.78829 10.1249 8.64522 10.1841 8.53973 10.2896C8.43424 10.3951 8.37498 10.5382 8.37498 10.6874C8.37498 10.8366 8.43424 10.9796 8.53973 11.0851C8.64522 11.1906 8.78829 11.2499 8.93748 11.2499H12.3125C12.4617 11.2499 12.6047 11.1906 12.7102 11.0851C12.8157 10.9796 12.875 10.8366 12.875 10.6874C12.875 10.5382 12.8157 10.3951 12.7102 10.2896C12.6047 10.1841 12.4617 10.1249 12.3125 10.1249H8.93748ZM8.93748 13.4999C8.78829 13.4999 8.64522 13.5591 8.53973 13.6646C8.43424 13.7701 8.37498 13.9132 8.37498 14.0624C8.37498 14.2116 8.43424 14.3546 8.53973 14.4601C8.64522 14.5656 8.78829 14.6249 8.93748 14.6249H10.0625C10.2117 14.6249 10.3547 14.5656 10.4602 14.4601C10.5657 14.3546 10.625 14.2116 10.625 14.0624C10.625 13.9132 10.5657 13.7701 10.4602 13.6646C10.3547 13.5591 10.2117 13.4999 10.0625 13.4999H8.93748Z" fill="#0D4542"/>
</svg>
