<svg width="123" height="123" viewBox="0 0 123 123" fill="none" xmlns="http://www.w3.org/2000/svg">
<rect width="123" height="123" fill="#BDBAB9"/>
<rect width="104" height="103" transform="translate(10 10)" fill="#BDBAB9"/>
<path d="M23 57.2083H57.6667V22.875H23V57.2083ZM31.6667 31.4583H49V48.625H31.6667V31.4583ZM23 100.125H57.6667V65.7917H23V100.125ZM31.6667 74.375H49V91.5417H31.6667V74.375ZM66.3333 22.875V57.2083H101V22.875H66.3333ZM92.3333 48.625H75V31.4583H92.3333V48.625ZM66.3767 65.7917H75.0433V74.375H66.3767V65.7917ZM75.0433 74.375H83.71V82.9583H75.0433V74.375ZM66.3767 82.9583H75.0433V91.5417H66.3767V82.9583ZM83.71 82.9583H92.3767V91.5417H83.71V82.9583ZM92.3767 91.5417H101.043V100.125H92.3767V91.5417ZM75.0433 91.5417H83.71V100.125H75.0433V91.5417ZM83.71 65.7917H92.3767V74.375H83.71V65.7917ZM92.3767 74.375H101.043V82.9583H92.3767V74.375Z" fill="white"/>
</svg>
