<svg width="19" height="18" viewBox="0 0 19 18" fill="none" xmlns="http://www.w3.org/2000/svg">
<path d="M4.43748 2.8125C4.43748 2.66332 4.37821 2.52024 4.27273 2.41475C4.16724 2.30926 4.02416 2.25 3.87498 2.25C3.72579 2.25 3.58272 2.30926 3.47723 2.41475C3.37174 2.52024 3.31248 2.66332 3.31248 2.8125V12.7046L2.02323 11.4142C1.91761 11.3086 1.77435 11.2493 1.62498 11.2493C1.47561 11.2493 1.33235 11.3086 1.22673 11.4142C1.12111 11.5199 1.06177 11.6631 1.06177 11.8125C1.06177 11.9619 1.12111 12.1051 1.22673 12.2108L3.47673 14.4596L3.4846 14.4675C3.59021 14.5705 3.73224 14.6276 3.87974 14.6263C4.02725 14.625 4.16827 14.5655 4.2721 14.4608L6.5221 12.2108C6.5744 12.1585 6.6159 12.0965 6.64423 12.0282C6.67257 11.96 6.68718 11.8868 6.68723 11.8129C6.68728 11.739 6.67277 11.6658 6.64454 11.5975C6.6163 11.5292 6.57489 11.4671 6.52267 11.4148C6.47044 11.3625 6.40843 11.321 6.34016 11.2927C6.2719 11.2643 6.19872 11.2497 6.12481 11.2497C6.0509 11.2496 5.97771 11.2641 5.9094 11.2924C5.8411 11.3206 5.77903 11.362 5.72673 11.4142L4.43748 12.7046V2.8125ZM8.37498 3.9375C8.37498 3.78832 8.43424 3.64524 8.53973 3.53975C8.64522 3.43426 8.78829 3.375 8.93748 3.375H16.8125C16.9617 3.375 17.1047 3.43426 17.2102 3.53975C17.3157 3.64524 17.375 3.78832 17.375 3.9375C17.375 4.08668 17.3157 4.22976 17.2102 4.33525C17.1047 4.44074 16.9617 4.5 16.8125 4.5H8.93748C8.78829 4.5 8.64522 4.44074 8.53973 4.33525C8.43424 4.22976 8.37498 4.08668 8.37498 3.9375ZM8.93748 6.75C8.78829 6.75 8.64522 6.80926 8.53973 6.91475C8.43424 7.02024 8.37498 7.16332 8.37498 7.3125C8.37498 7.46168 8.43424 7.60476 8.53973 7.71025C8.64522 7.81574 8.78829 7.875 8.93748 7.875H14.5625C14.7117 7.875 14.8547 7.81574 14.9602 7.71025C15.0657 7.60476 15.125 7.46168 15.125 7.3125C15.125 7.16332 15.0657 7.02024 14.9602 6.91475C14.8547 6.80926 14.7117 6.75 14.5625 6.75H8.93748ZM8.93748 10.125C8.78829 10.125 8.64522 10.1843 8.53973 10.2898C8.43424 10.3952 8.37498 10.5383 8.37498 10.6875C8.37498 10.8367 8.43424 10.9798 8.53973 11.0852C8.64522 11.1907 8.78829 11.25 8.93748 11.25H12.3125C12.4617 11.25 12.6047 11.1907 12.7102 11.0852C12.8157 10.9798 12.875 10.8367 12.875 10.6875C12.875 10.5383 12.8157 10.3952 12.7102 10.2898C12.6047 10.1843 12.4617 10.125 12.3125 10.125H8.93748ZM8.93748 13.5C8.78829 13.5 8.64522 13.5593 8.53973 13.6648C8.43424 13.7702 8.37498 13.9133 8.37498 14.0625C8.37498 14.2117 8.43424 14.3548 8.53973 14.4602C8.64522 14.5657 8.78829 14.625 8.93748 14.625H10.0625C10.2117 14.625 10.3547 14.5657 10.4602 14.4602C10.5657 14.3548 10.625 14.2117 10.625 14.0625C10.625 13.9133 10.5657 13.7702 10.4602 13.6648C10.3547 13.5593 10.2117 13.5 10.0625 13.5H8.93748Z" fill="#0D4542"/>
</svg>
